<svg xmlns="http://www.w3.org/2000/svg" width="700" height="600"><rect width="700" height="600" x="0" y="0" fill="#FFFFFF" id="background"/><g transform="translate(10,10)" id="visualization"><g><rect x="675" y="0" height="166.32769415460035" width="5" fill="black"><title>Home and Kitchen: 13105.364701735492</title></rect><rect x="675" y="171.32769415460035" height="136.50922859574825" width="5" fill="black"><title>Electronics: 10755.89507203169</title></rect><rect x="0" y="0" height="128.3413932996831" width="5" fill="black"><title>$150,000 or more: 10112.331407407408</title></rect><rect x="0" y="133.3413932996831" height="109.71862260888525" width="5" fill="black"><title>$100,000 - $149,999: 8644.997883064518</title></rect><rect x="0" y="248.06001590856835" height="89.38187765700081" width="5" fill="black"><title>$75,000 - $99,999: 7042.61614624506</title></rect><rect x="0" y="342.44189356556916" height="81.7609283906828" width="5" fill="black"><title>$50,000 - $74,999: 6442.142965779468</title></rect><rect x="0" y="429.20282195625197" height="66.88152841122059" width="5" fill="black"><title>$25,000 - $49,999: 5269.758750000001</title></rect><rect x="675" y="312.8369227503486" height="61.833111636851584" width="5" fill="black"><title>Beauty and Personal Care: 4871.98167907537</title></rect><rect x="675" y="379.6700343872002" height="60.259086077387224" width="5" fill="black"><title>Clothing, Shoes, and Jewelry: 4747.960366139596</title></rect><rect x="0" y="501.08435036747255" height="58.91564963252756" width="5" fill="black"><title>Less than $25,000: 4642.107731958762</title></rect><rect x="675" y="444.9291204645874" height="35.261156778000384" width="5" fill="black"><title>Food: 2778.312545782298</title></rect><rect x="675" y="485.1902772425878" height="20.45616832782582" width="5" fill="black"><title>Pet Supplies: 1611.791395887835</title></rect><rect x="675" y="510.6464455704136" height="18.003721154170364" width="5" fill="black"><title>Books: 1418.5571014676834</title></rect><rect x="675" y="533.650166724584" height="13.592635261779037" width="5" fill="black"><title>Sports and Outdoors: 1070.996885207272</title></rect><rect x="675" y="552.242801986363" height="13.562536462991034" width="5" fill="black"><title>Toys and Games: 1068.625327438699</title></rect><rect x="675" y="570.805338449354" height="9.194661550645947" width="5" fill="black"><title>Office Product: 724.4698096892798</title></rect></g><g fill="none" stroke-opacity="1"><g style="mix-blend-mode: multiply;"><path d="M5,202.3343418365768C340,202.3343418365768,340,333.17086876448496,675,333.17086876448496" stroke="#cab2d6" stroke-width="11.791067865521477"/><title>$100,000 - $149,999 → Beauty and Personal Care: 929.046995967742</title></g><g style="mix-blend-mode: multiply;"><path d="M5,233.5097623388048C340,233.5097623388048,340,516.4609287480928,675,516.4609287480928" stroke="#cab2d6" stroke-width="3.2439044184311654"/><title>$100,000 - $149,999 → Books: 255.59514112903227</title></g><g style="mix-blend-mode: multiply;"><path d="M5,214.76823301807798C340,214.76823301807798,340,399.5644597822699,675,399.5644597822699" stroke="#cab2d6" stroke-width="13.076714497480863"/><title>$100,000 - $149,999 → Clothing, Shoes, and Jewelry: 1030.3462298387096</title></g><g style="mix-blend-mode: multiply;"><path d="M5,182.13967294191855C340,182.13967294191855,340,216.61213158224308,675,216.61213158224308" stroke="#cab2d6" stroke-width="28.59826992379505"/><title>$100,000 - $149,999 → Electronics: 2253.327439516129</title></g><g style="mix-blend-mode: multiply;"><path d="M5,224.57747835141058C340,224.57747835141058,340,457.08366598633523,675,457.08366598633523" stroke="#cab2d6" stroke-width="6.541776169184319"/><title>$100,000 - $149,999 → Food: 515.4425</title></g><g style="mix-blend-mode: multiply;"><path d="M5,150.59096563985207C340,150.59096563985207,340,59.76800859202961,675,59.76800859202961" stroke="#cab2d6" stroke-width="34.499144680337935"/><title>$100,000 - $149,999 → Home and Kitchen: 2718.2717540322583</title></g><g style="mix-blend-mode: multiply;"><path d="M5,241.99055845400935C340,241.99055845400935,340,573.9120143143409,675,573.9120143143409" stroke="#cab2d6" stroke-width="2.138914909117914"/><title>$100,000 - $149,999 → Office Product: 168.53032258064516</title></g><g style="mix-blend-mode: multiply;"><path d="M5,229.86808828279595C340,229.86808828279595,340,491.4444456232215,675,491.4444456232215" stroke="#cab2d6" stroke-width="4.039443693586488"/><title>$100,000 - $149,999 → Pet Supplies: 318.27762096774194</title></g><g style="mix-blend-mode: multiply;"><path d="M5,236.55111244899192C340,236.55111244899192,340,539.2512734426284,675,539.2512734426284" stroke="#cab2d6" stroke-width="2.8387958019431005"/><title>$100,000 - $149,999 → Sports and Outdoors: 223.6756451612903</title></g><g style="mix-blend-mode: multiply;"><path d="M5,239.44580567470692C340,239.44580567470692,340,557.2317094985183,675,557.2317094985183" stroke="#cab2d6" stroke-width="2.9505906494869367"/><title>$100,000 - $149,999 → Toys and Games: 232.48423387096773</title></g><g style="mix-blend-mode: multiply;"><path d="M5,80.72294475829366C340,80.72294475829366,340,320.05612879103643,675,320.05612879103643" stroke="#fb9a99" stroke-width="14.438412081375633"/><title>$150,000 or more → Beauty and Personal Care: 1137.6377037037037</title></g><g style="mix-blend-mode: multiply;"><path d="M5,116.51258840053869C340,116.51258840053869,340,512.7427110546454,675,512.7427110546454" stroke="#fb9a99" stroke-width="4.192530968463609"/><title>$150,000 or more → Books: 330.33974074074075</title></g><g style="mix-blend-mode: multiply;"><path d="M5,94.62018487214611C340,94.62018487214611,340,386.34806846036486,675,386.34806846036486" stroke="#fb9a99" stroke-width="13.356068146329287"/><title>$150,000 or more → Clothing, Shoes, and Jewelry: 1052.3571851851852</title></g><g style="mix-blend-mode: multiply;"><path d="M5,58.011087484733245C340,58.011087484733245,340,186.82034538747297,675,186.82034538747297" stroke="#fb9a99" stroke-width="30.985302465745207"/><title>$150,000 or more → Electronics: 2441.4075555555555</title></g><g style="mix-blend-mode: multiply;"><path d="M5,105.7400476638886C340,105.7400476638886,340,449.37094918316524,675,449.37094918316524" stroke="#fb9a99" stroke-width="8.883657437155664"/><title>$150,000 or more → Food: 699.9650370370371</title></g><g style="mix-blend-mode: multiply;"><path d="M5,21.25921812593032C340,21.25921812593032,340,21.25921812593032,675,21.25921812593032" stroke="#fb9a99" stroke-width="42.51843625186064"/><title>$150,000 or more → Home and Kitchen: 3350.131296296296</title></g><g style="mix-blend-mode: multiply;"><path d="M5,127.32278409446909C340,127.32278409446909,340,571.8239476545681,675,571.8239476545681" stroke="#fb9a99" stroke-width="2.037218410427988"/><title>$150,000 or more → Office Product: 160.5174074074074</title></g><g style="mix-blend-mode: multiply;"><path d="M5,112.29909964938665C340,112.29909964938665,340,487.30750050950803,675,487.30750050950803" stroke="#fb9a99" stroke-width="4.234446533840452"/><title>$150,000 or more → Pet Supplies: 333.6423703703704</title></g><g style="mix-blend-mode: multiply;"><path d="M5,120.69970829330688C340,120.69970829330688,340,535.7410211331204,675,535.7410211331204" stroke="#fb9a99" stroke-width="4.181708817072787"/><title>$150,000 or more → Sports and Outdoors: 329.48703703703706</title></g><g style="mix-blend-mode: multiply;"><path d="M5,124.54736879554919C340,124.54736879554919,340,553.9996080800689,675,553.9996080800689" stroke="#fb9a99" stroke-width="3.5136121874118147"/><title>$150,000 or more → Toys and Games: 276.84607407407407</title></g><g style="mix-blend-mode: multiply;"><path d="M5,470.84473552120795C340,470.84473552120795,340,363.81334168801504,675,363.81334168801504" stroke="#fedd8d" stroke-width="8.08049009392129"/><title>$25,000 - $49,999 → Beauty and Personal Care: 636.6815231092436</title></g><g style="mix-blend-mode: multiply;"><path d="M5,490.9644304636786C340,490.9644304636786,340,525.0151895828126,675,525.0151895828126" stroke="#fedd8d" stroke-width="2.3930385027059753"/><title>$25,000 - $49,999 → Books: 188.55334033613445</title></g><g style="mix-blend-mode: multiply;"><path d="M5,478.5299803661467C340,478.5299803661467,340,429.58847825452347,675,429.58847825452347" stroke="#fedd8d" stroke-width="7.289999595956102"/><title>$25,000 - $49,999 → Clothing, Shoes, and Jewelry: 574.3968487394958</title></g><g style="mix-blend-mode: multiply;"><path d="M5,457.85332640323486C340,457.85332640323486,340,282.76790002791296,675,282.76790002791296" stroke="#fedd8d" stroke-width="17.902328142024892"/><title>$25,000 - $49,999 → Electronics: 1410.5680987394958</title></g><g style="mix-blend-mode: multiply;"><path d="M5,484.39266018779523C340,484.39266018779523,340,473.1078891177003,675,473.1078891177003" stroke="#fedd8d" stroke-width="4.435360047341122"/><title>$25,000 - $49,999 → Food: 349.4728361344538</title></g><g style="mix-blend-mode: multiply;"><path d="M5,439.0524921442372C340,439.0524921442372,340,140.3624883964337,675,140.3624883964337" stroke="#fedd8d" stroke-width="19.69934037597044"/><title>$25,000 - $49,999 → Home and Kitchen: 1552.1590756302521</title></g><g style="mix-blend-mode: multiply;"><path d="M5,495.4827632033018C340,495.4827632033018,340,578.3814706655925,675,578.3814706655925" stroke="#fedd8d" stroke-width="1.2031743283414935"/><title>$25,000 - $49,999 → Office Product: 94.80103991596638</title></g><g style="mix-blend-mode: multiply;"><path d="M5,488.1891257118957C340,488.1891257118957,340,501.5669214465518,675,501.5669214465518" stroke="#fedd8d" stroke-width="3.1575710008597477"/><title>$25,000 - $49,999 → Pet Supplies: 248.7927205882353</title></g><g style="mix-blend-mode: multiply;"><path d="M5,492.82037225784967C340,492.82037225784967,340,545.5628336952063,675,545.5628336952063" stroke="#fedd8d" stroke-width="1.3188450856362466"/><title>$25,000 - $49,999 → Sports and Outdoors: 103.91502100840337</title></g><g style="mix-blend-mode: multiply;"><path d="M5,494.18048541989947C340,494.18048541989947,340,563.7758750171527,675,563.7758750171527" stroke="#fedd8d" stroke-width="1.401381238463227"/><title>$25,000 - $49,999 → Toys and Games: 110.41824579831932</title></g><g style="mix-blend-mode: multiply;"><path d="M5,393.38832419874035C340,393.38832419874035,340,354.92029776857476,675,354.92029776857476" stroke="#e0f3a1" stroke-width="9.705597744959206"/><title>$50,000 - $74,999 → Beauty and Personal Care: 764.7277186311787</title></g><g style="mix-blend-mode: multiply;"><path d="M5,417.66656457044786C340,417.66656457044786,340,522.5541216385811,675,522.5541216385811" stroke="#e0f3a1" stroke-width="2.529097385756945"/><title>$50,000 - $74,999 → Books: 199.2737515842839</title></g><g style="mix-blend-mode: multiply;"><path d="M5,402.9931893783785C340,402.9931893783785,340,421.1914121493869,675,421.1914121493869" stroke="#e0f3a1" stroke-width="9.504132614316978"/><title>$50,000 - $74,999 → Clothing, Shoes, and Jewelry: 748.8537896070976</title></g><g style="mix-blend-mode: multiply;"><path d="M5,378.2750022201668C340,378.2750022201668,340,263.55621285080656,675,263.55621285080656" stroke="#e0f3a1" stroke-width="20.521046212187986"/><title>$50,000 - $74,999 → Electronics: 1616.9032826362484</title></g><g style="mix-blend-mode: multiply;"><path d="M5,410.39783958431207C340,410.39783958431207,340,468.2376251952547,675,468.2376251952547" stroke="#e0f3a1" stroke-width="5.305167797550192"/><title>$50,000 - $74,999 → Food: 418.00711026615966</title></g><g style="mix-blend-mode: multiply;"><path d="M5,355.228186339821C340,355.228186339821,340,117.72652543419665,675,117.72652543419665" stroke="#e0f3a1" stroke-width="25.57258554850365"/><title>$50,000 - $74,999 → Home and Kitchen: 2014.9263878326994</title></g><g style="mix-blend-mode: multiply;"><path d="M5,423.60363429156496C340,423.60363429156496,340,577.1806958367347,675,577.1806958367347" stroke="#e0f3a1" stroke-width="1.198375329373977"/><title>$50,000 - $74,999 → Office Product: 94.42291508238276</title></g><g style="mix-blend-mode: multiply;"><path d="M5,414.72621968032826C340,414.72621968032826,340,498.3123397488808,675,498.3123397488808" stroke="#e0f3a1" stroke-width="3.3515923944822075"/><title>$50,000 - $74,999 → Pet Supplies: 264.0801394169835</title></g><g style="mix-blend-mode: multiply;"><path d="M5,419.89440872882795C340,419.89440872882795,340,543.9401156868865,675,543.9401156868865" stroke="#e0f3a1" stroke-width="1.9265909310032554"/><title>$50,000 - $74,999 → Sports and Outdoors: 151.80079847908746</title></g><g style="mix-blend-mode: multiply;"><path d="M5,421.9310754106038C340,421.9310754106038,340,562.0018131816468,675,562.0018131816468" stroke="#e0f3a1" stroke-width="2.146742432548382"/><title>$50,000 - $74,999 → Toys and Games: 169.14707224334603</title></g><g style="mix-blend-mode: multiply;"><path d="M5,303.86763893631127C340,303.86763893631127,340,344.5669507966704,675,344.5669507966704" stroke="#a6cee3" stroke-width="11.001096198849412"/><title>$75,000 - $99,999 → Beauty and Personal Care: 866.8032015810277</title></g><g style="mix-blend-mode: multiply;"><path d="M5,329.7109251483284C340,329.7109251483284,340,519.6862269515054,675,519.6862269515054" stroke="#a6cee3" stroke-width="3.206691988394237"/><title>$75,000 - $99,999 → Books: 252.66308300395258</title></g><g style="mix-blend-mode: multiply;"><path d="M5,314.5364514413451C340,314.5364514413451,340,411.2710814366194,675,411.2710814366194" stroke="#a6cee3" stroke-width="10.336528811218129"/><title>$75,000 - $99,999 → Clothing, Shoes, and Jewelry: 814.4403162055336</title></g><g style="mix-blend-mode: multiply;"><path d="M5,287.1748792366006C340,287.1748792366006,340,242.1034781444266,675,242.1034781444266" stroke="#a6cee3" stroke-width="22.38442320057195"/><title>$75,000 - $99,999 → Electronics: 1763.723300395257</title></g><g style="mix-blend-mode: multiply;"><path d="M5,322.31995945973017C340,322.31995945973017,340,462.96979768370346,675,462.96979768370346" stroke="#a6cee3" stroke-width="5.2304872255521415"/><title>$75,000 - $99,999 → Food: 412.1228458498024</title></g><g style="mix-blend-mode: multiply;"><path d="M5,262.0213417724415C340,262.0213417724415,340,90.9789067960717,675,90.9789067960717" stroke="#a6cee3" stroke-width="27.92265172774625"/><title>$75,000 - $99,999 → Home and Kitchen: 2200.093833992095</title></g><g style="mix-blend-mode: multiply;"><path d="M5,336.6418753639953C340,336.6418753639953,340,575.7814899704739,675,575.7814899704739" stroke="#a6cee3" stroke-width="1.6000364031478072"/><title>$75,000 - $99,999 → Office Product: 126.07077075098813</title></g><g style="mix-blend-mode: multiply;"><path d="M5,326.52139111331877C340,326.52139111331877,340,495.0503555108272,675,495.0503555108272" stroke="#a6cee3" stroke-width="3.172376081624972"/><title>$75,000 - $99,999 → Pet Supplies: 249.9592490118577</title></g><g style="mix-blend-mode: multiply;"><path d="M5,332.46734558141804C340,332.46734558141804,340,541.8237457824924,675,541.8237457824924" stroke="#a6cee3" stroke-width="2.306148877785053"/><title>$75,000 - $99,999 → Sports and Outdoors: 181.70709486166007</title></g><g style="mix-blend-mode: multiply;"><path d="M5,334.731138591366C340,334.731138591366,340,559.8177233943171,675,559.8177233943171" stroke="#a6cee3" stroke-width="2.2214371421108448"/><title>$75,000 - $99,999 → Toys and Games: 175.03245059288537</title></g><g style="mix-blend-mode: multiply;"><path d="M5,536.7259684151894C340,536.7259684151894,340,371.26181056108794,675,371.26181056108794" stroke="#f5f1c3" stroke-width="6.816447652224537"/><title>Less than $25,000 → Beauty and Personal Care: 537.0845360824743</title></g><g style="mix-blend-mode: multiply;"><path d="M5,555.4145103232456C340,555.4145103232456,340,527.4309377793747,675,527.4309377793747" stroke="#f5f1c3" stroke-width="2.4384578904184613"/><title>Less than $25,000 → Books: 192.13204467353953</title></g><g style="mix-blend-mode: multiply;"><path d="M5,543.4820134473446C340,543.4820134473446,340,436.5812992585444,675,436.5812992585444" stroke="#f5f1c3" stroke-width="6.6956424120858555"/><title>Less than $25,000 → Clothing, Shoes, and Jewelry: 527.5659965635739</title></g><g style="mix-blend-mode: multiply;"><path d="M5,525.2588152633656C340,525.2588152633656,340,299.777993424637,675,299.777993424637" stroke="#f5f1c3" stroke-width="16.11785865142313"/><title>Less than $25,000 → Electronics: 1269.9653951890034</title></g><g style="mix-blend-mode: multiply;"><path d="M5,549.2621887039959C340,549.2621887039959,340,477.7579231919794,675,477.7579231919794" stroke="#f5f1c3" stroke-width="4.864708101216931"/><title>Less than $25,000 → Food: 383.30221649484537</title></g><g style="mix-blend-mode: multiply;"><path d="M5,509.1421181525633C340,509.1421181525633,340,158.26992636950962,675,158.26992636950962" stroke="#f5f1c3" stroke-width="16.11553557018143"/><title>Less than $25,000 → Home and Kitchen: 1269.78235395189</title></g><g style="mix-blend-mode: multiply;"><path d="M5,559.4915289148818C340,559.4915289148818,340,579.4915289148815,675,579.4915289148815" stroke="#f5f1c3" stroke-width="1.0169421702367796"/><title>Less than $25,000 → Office Product: 80.12735395189004</title></g><g style="mix-blend-mode: multiply;"><path d="M5,552.9449120663204C340,552.9449120663204,340,504.3960762586977,675,504.3960762586977" stroke="#f5f1c3" stroke-width="2.500738623431964"/><title>Less than $25,000 → Pet Supplies: 197.03929553264604</title></g><g style="mix-blend-mode: multiply;"><path d="M5,557.1440121426242C340,557.1440121426242,340,546.7325291121938,675,546.7325291121938" stroke="#f5f1c3" stroke-width="1.020545748338642"/><title>Less than $25,000 → Sports and Outdoors: 80.41128865979383</title></g><g style="mix-blend-mode: multiply;"><path d="M5,558.3186714232785C340,558.3186714232785,340,565.1409520428692,675,565.1409520428692" stroke="#f5f1c3" stroke-width="1.328772812969857"/><title>Less than $25,000 → Toys and Games: 104.69725085910653</title></g></g><g><text x="671" y="83.16384707730018" text-anchor="end"><tspan alignment-baseline="middle" x="671" style="font-family: Arial, sans-serif; font-size: 10px; fill: black; font-weight: bold;">Home and Kitchen</tspan></text><text x="671" y="239.58230845247448" text-anchor="end"><tspan alignment-baseline="middle" x="671" style="font-family: Arial, sans-serif; font-size: 10px; fill: black; font-weight: bold;">Electronics</tspan></text><text x="9" y="64.17069664984155" text-anchor="start"><tspan alignment-baseline="middle" x="9" style="font-family: Arial, sans-serif; font-size: 10px; fill: black; font-weight: bold;">$150,000 or more</tspan></text><text x="9" y="188.20070460412572" text-anchor="start"><tspan alignment-baseline="middle" x="9" style="font-family: Arial, sans-serif; font-size: 10px; fill: black; font-weight: bold;">$100,000 - $149,999</tspan></text><text x="9" y="292.75095473706875" text-anchor="start"><tspan alignment-baseline="middle" x="9" style="font-family: Arial, sans-serif; font-size: 10px; fill: black; font-weight: bold;">$75,000 - $99,999</tspan></text><text x="9" y="383.32235776091056" text-anchor="start"><tspan alignment-baseline="middle" x="9" style="font-family: Arial, sans-serif; font-size: 10px; fill: black; font-weight: bold;">$50,000 - $74,999</tspan></text><text x="9" y="462.64358616186223" text-anchor="start"><tspan alignment-baseline="middle" x="9" style="font-family: Arial, sans-serif; font-size: 10px; fill: black; font-weight: bold;">$25,000 - $49,999</tspan></text><text x="671" y="343.7534785687744" text-anchor="end"><tspan alignment-baseline="middle" x="671" style="font-family: Arial, sans-serif; font-size: 10px; fill: black; font-weight: bold;">Beauty and Personal Care</tspan></text><text x="671" y="409.7995774258938" text-anchor="end"><tspan alignment-baseline="middle" x="671" style="font-family: Arial, sans-serif; font-size: 10px; fill: black; font-weight: bold;">Clothing, Shoes, and Jewelry</tspan></text><text x="9" y="530.5421751837364" text-anchor="start"><tspan alignment-baseline="middle" x="9" style="font-family: Arial, sans-serif; font-size: 10px; fill: black; font-weight: bold;">Less than $25,000</tspan></text><text x="671" y="462.55969885358763" text-anchor="end"><tspan alignment-baseline="middle" x="671" style="font-family: Arial, sans-serif; font-size: 10px; fill: black; font-weight: bold;">Food</tspan></text><text x="671" y="495.4183614065007" text-anchor="end"><tspan alignment-baseline="middle" x="671" style="font-family: Arial, sans-serif; font-size: 10px; fill: black; font-weight: bold;">Pet Supplies</tspan></text><text x="671" y="519.6483061474988" text-anchor="end"><tspan alignment-baseline="middle" x="671" style="font-family: Arial, sans-serif; font-size: 10px; fill: black; font-weight: bold;">Books</tspan></text><text x="671" y="540.4464843554736" text-anchor="end"><tspan alignment-baseline="middle" x="671" style="font-family: Arial, sans-serif; font-size: 10px; fill: black; font-weight: bold;">Sports and Outdoors</tspan></text><text x="671" y="559.0240702178585" text-anchor="end"><tspan alignment-baseline="middle" x="671" style="font-family: Arial, sans-serif; font-size: 10px; fill: black; font-weight: bold;">Toys and Games</tspan></text><text x="671" y="575.4026692246771" text-anchor="end"><tspan alignment-baseline="middle" x="671" style="font-family: Arial, sans-serif; font-size: 10px; fill: black; font-weight: bold;">Office Product</tspan></text></g><g><text x="677.5" y="-4" text-anchor="middle" style="font-family: Arial, sans-serif; font-size: 12px; fill: rgb(123, 123, 123); font-weight: bold;">New_Category</text><text x="2.5" y="-4" text-anchor="middle" style="font-family: Arial, sans-serif; font-size: 12px; fill: rgb(123, 123, 123); font-weight: bold;">Q-demos-income</text></g></g></svg>