<?xml version="1.0" encoding="UTF-8"?>
<svg id="Layer_1" xmlns="http://www.w3.org/2000/svg" version="1.1" viewBox="0 0 1120 597.5">
  <!-- Generator: Adobe Illustrator 29.3.1, SVG Export Plug-In . SVG Version: 2.1.0 Build 151)  -->
  <defs>
    <style>
      .st0 {
        fill: #89bde1;
      }

      .st1 {
        fill: #edb1db;
      }

      .st2 {
        font-family: ArialMT, Arial;
      }

      .st2, .st3, .st4, .st5, .st6 {
        isolation: isolate;
      }

      .st2, .st3, .st5 {
        font-size: 10px;
      }

      .st7 {
        fill: #c3a2e1;
      }

      .st8 {
        fill: #b8b2b2;
      }

      .st9 {
        fill: #9cd09c;
      }

      .st3 {
        font-family: Helvetica, Helvetica;
      }

      .st5, .st6 {
        font-family: Arial-BoldMT, Arial;
        font-weight: 700;
      }

      .st10 {
        fill: #fff;
      }

      .st11 {
        fill: #efba8c;
      }

      .st12 {
        fill: #e2e365;
      }

      .st13 {
        fill: #75ccd5;
      }

      .st14 {
        fill: #d5a196;
      }

      .st15 {
        fill: #f2a8aa;
      }

      .st16 {
        fill: none;
        stroke: #000;
      }

      .st6 {
        font-size: 12px;
      }
    </style>
  </defs>
  <rect id="background" class="st10" x="115" y="-2.5" width="1005" height="600"/>
  <g id="viz">
    <g id="_x24_100_x2C_000_-__x24_149_x2C_999">
      <g>
        <g>
          <rect id="_x24_100_x2C_000_-__x24_149_x2C_999_-_Beauty_and_Personal_Care" class="st13" x="165" y="70.3" width="55.3" height="24.9"/>
          <rect id="_x24_100_x2C_000_-__x24_149_x2C_999_-_Books" class="st12" x="165" y="173.9" width="15.2" height="24.9"/>
          <rect id="_x24_100_x2C_000_-__x24_149_x2C_999_-_Clothing_x2C__Shoes_x2C__and_Jewelry" class="st8" x="165" y="96.2" width="61.3" height="24.9"/>
          <rect id="_x24_100_x2C_000_-__x24_149_x2C_999_-_Electronics" class="st1" x="165" y="44.4" width="134.1" height="24.9"/>
          <rect id="_x24_100_x2C_000_-__x24_149_x2C_999_-_Food" class="st14" x="165" y="122.1" width="30.7" height="24.9"/>
          <rect id="_x24_100_x2C_000_-__x24_149_x2C_999_-_Home_and_Kitchen" class="st7" x="165" y="18.5" width="161.8" height="24.9"/>
          <rect id="_x24_100_x2C_000_-__x24_149_x2C_999_-_Office_Product" class="st15" x="165" y="251.6" width="10" height="24.9"/>
          <rect id="_x24_100_x2C_000_-__x24_149_x2C_999_-_Pet_Supplies" class="st9" x="165" y="148" width="18.9" height="24.9"/>
          <rect id="_x24_100_x2C_000_-__x24_149_x2C_999_-_Sports_and_Outdoors" class="st11" x="165" y="199.8" width="13.3" height="24.9"/>
          <rect id="_x24_100_x2C_000_-__x24_149_x2C_999_-_Toys_and_Games" class="st0" x="165" y="225.7" width="13.8" height="24.9"/>
        </g>
        <g id="xAxis">
          <path class="st16" d="M165,283.5v-6h208.3v6"/>
          <g>
            <line class="st16" x1="165" y1="277.5" x2="165" y2="283.5"/>
            <text class="st3" transform="translate(162.2 293.6)"><tspan x="0" y="0">0</tspan></text>
          </g>
          <g>
            <line class="st16" x1="194.8" y1="277.5" x2="194.8" y2="283.5"/>
            <text class="st3" transform="translate(186.4 293.6)"><tspan x="0" y="0">500</tspan></text>
          </g>
          <g>
            <line class="st16" x1="224.5" y1="277.5" x2="224.5" y2="283.5"/>
            <text class="st3" transform="translate(212 293.6)"><tspan x="0" y="0">1,000</tspan></text>
          </g>
          <g>
            <line class="st16" x1="254.3" y1="277.5" x2="254.3" y2="283.5"/>
            <text class="st3" transform="translate(241.8 293.6)"><tspan x="0" y="0">1,500</tspan></text>
          </g>
          <g>
            <line class="st16" x1="284" y1="277.5" x2="284" y2="283.5"/>
            <text class="st3" transform="translate(271.5 293.6)"><tspan x="0" y="0">2,000</tspan></text>
          </g>
          <g>
            <line class="st16" x1="313.8" y1="277.5" x2="313.8" y2="283.5"/>
            <text class="st3" transform="translate(301.3 293.6)"><tspan x="0" y="0">2,500</tspan></text>
          </g>
          <g>
            <line class="st16" x1="343.6" y1="277.5" x2="343.6" y2="283.5"/>
            <text class="st3" transform="translate(331.1 293.6)"><tspan x="0" y="0">3,000</tspan></text>
          </g>
          <g>
            <line class="st16" x1="373.3" y1="277.5" x2="373.3" y2="283.5"/>
            <text class="st3" transform="translate(360.8 293.6)"><tspan x="0" y="0">3,500</tspan></text>
          </g>
          <text class="st5" transform="translate(322.8 272.5)"><tspan x="0" y="0">sum [sum]</tspan></text>
        </g>
        <g id="yAxis">
          <path class="st16" d="M165,17.5v260"/>
          <g>
            <line class="st16" x1="165" y1="30.9" x2="159" y2="30.9"/>
            <text class="st3" transform="translate(73.7 34.1)"><tspan x="0" y="0">Home and Kitchen</tspan></text>
          </g>
          <g>
            <line class="st16" x1="165" y1="56.8" x2="159" y2="56.8"/>
            <text class="st3" transform="translate(107.1 60)"><tspan x="0" y="0">Electronics</tspan></text>
          </g>
          <g>
            <line class="st16" x1="165" y1="82.7" x2="159" y2="82.7"/>
            <text class="st3" transform="translate(38.7 85.9)"><tspan x="0" y="0">Beauty and Personal Care</tspan></text>
          </g>
          <g>
            <line class="st16" x1="165" y1="108.6" x2="159" y2="108.6"/>
            <text class="st3" transform="translate(26.5 111.8)"><tspan x="0" y="0">Clothing, Shoes, and Jewelry</tspan></text>
          </g>
          <g>
            <line class="st16" x1="165" y1="134.5" x2="159" y2="134.5"/>
            <text class="st3" transform="translate(133.2 137.7)"><tspan x="0" y="0">Food</tspan></text>
          </g>
          <g>
            <line class="st16" x1="165" y1="160.4" x2="159" y2="160.4"/>
            <text class="st3" transform="translate(99.9 163.6)"><tspan x="0" y="0">Pet Supplies</tspan></text>
          </g>
          <g>
            <line class="st16" x1="165" y1="186.3" x2="159" y2="186.3"/>
            <text class="st3" transform="translate(128.2 189.5)"><tspan x="0" y="0">Books</tspan></text>
          </g>
          <g>
            <line class="st16" x1="165" y1="212.2" x2="159" y2="212.2"/>
            <text class="st3" transform="translate(63.7 215.4)"><tspan x="0" y="0">Sports and Outdoors</tspan></text>
          </g>
          <g>
            <line class="st16" x1="165" y1="238.1" x2="159" y2="238.1"/>
            <text class="st3" transform="translate(81 241.3)"><tspan x="0" y="0">Toys and Games</tspan></text>
          </g>
          <g>
            <line class="st16" x1="165" y1="264" x2="159" y2="264"/>
            <text class="st3" transform="translate(92.8 267.2)"><tspan x="0" y="0">Office Product</tspan></text>
          </g>
          <text class="st5" transform="translate(169 26.1)"><tspan x="0" y="0">New_Category</tspan></text>
        </g>
      </g>
      <text class="st6" transform="translate(119 11.8)"><tspan x="0" y="0">$100,000 - $149,999</tspan></text>
    </g>
    <g id="_x24_150_x2C_000_or_more">
      <g>
        <g>
          <rect id="_x24_150_x2C_000_or_more_-_Beauty_and_Personal_Care" class="st13" x="433.3" y="70.3" width="67.7" height="24.9"/>
          <rect id="_x24_150_x2C_000_or_more_-_Books" class="st12" x="433.3" y="173.9" width="19.7" height="24.9"/>
          <rect id="_x24_150_x2C_000_or_more_-_Clothing_x2C__Shoes_x2C__and_Jewelry" class="st8" x="433.3" y="96.2" width="62.6" height="24.9"/>
          <rect id="_x24_150_x2C_000_or_more_-_Electronics" class="st1" x="433.3" y="44.4" width="145.3" height="24.9"/>
          <rect id="_x24_150_x2C_000_or_more_-_Food" class="st14" x="433.3" y="122.1" width="41.7" height="24.9"/>
          <rect id="_x24_150_x2C_000_or_more_-_Home_and_Kitchen" class="st7" x="433.3" y="18.5" width="199.4" height="24.9"/>
          <rect id="_x24_150_x2C_000_or_more_-_Office_Product" class="st15" x="433.3" y="251.6" width="9.6" height="24.9"/>
          <rect id="_x24_150_x2C_000_or_more_-_Pet_Supplies" class="st9" x="433.3" y="148" width="19.9" height="24.9"/>
          <rect id="_x24_150_x2C_000_or_more_-_Sports_and_Outdoors" class="st11" x="433.3" y="199.8" width="19.6" height="24.9"/>
          <rect id="_x24_150_x2C_000_or_more_-_Toys_and_Games" class="st0" x="433.3" y="225.7" width="16.5" height="24.9"/>
        </g>
        <g id="xAxis1" data-name="xAxis">
          <path class="st16" d="M433.3,283.5v-6h208.3v6"/>
          <g>
            <line class="st16" x1="433.3" y1="277.5" x2="433.3" y2="283.5"/>
            <text class="st3" transform="translate(430.6 293.6)"><tspan x="0" y="0">0</tspan></text>
          </g>
          <g>
            <line class="st16" x1="463.1" y1="277.5" x2="463.1" y2="283.5"/>
            <text class="st3" transform="translate(454.8 293.6)"><tspan x="0" y="0">500</tspan></text>
          </g>
          <g>
            <line class="st16" x1="492.9" y1="277.5" x2="492.9" y2="283.5"/>
            <text class="st3" transform="translate(480.3 293.6)"><tspan x="0" y="0">1,000</tspan></text>
          </g>
          <g>
            <line class="st16" x1="522.6" y1="277.5" x2="522.6" y2="283.5"/>
            <text class="st3" transform="translate(510.1 293.6)"><tspan x="0" y="0">1,500</tspan></text>
          </g>
          <g>
            <line class="st16" x1="552.4" y1="277.5" x2="552.4" y2="283.5"/>
            <text class="st3" transform="translate(539.9 293.6)"><tspan x="0" y="0">2,000</tspan></text>
          </g>
          <g>
            <line class="st16" x1="582.1" y1="277.5" x2="582.1" y2="283.5"/>
            <text class="st3" transform="translate(569.6 293.6)"><tspan x="0" y="0">2,500</tspan></text>
          </g>
          <g>
            <line class="st16" x1="611.9" y1="277.5" x2="611.9" y2="283.5"/>
            <text class="st3" transform="translate(599.4 293.6)"><tspan x="0" y="0">3,000</tspan></text>
          </g>
          <g>
            <line class="st16" x1="641.7" y1="277.5" x2="641.7" y2="283.5"/>
            <text class="st3" transform="translate(629.2 293.6)"><tspan x="0" y="0">3,500</tspan></text>
          </g>
        </g>
        <g id="yAxis1" data-name="yAxis">
          <path class="st16" d="M433.3,17.5v260"/>
          <g>
            <line class="st16" x1="433.3" y1="30.9" x2="427.3" y2="30.9"/>
            <text class="st3" transform="translate(342.1 34.1)"><tspan x="0" y="0">Home and Kitchen</tspan></text>
          </g>
          <g>
            <line class="st16" x1="433.3" y1="56.8" x2="427.3" y2="56.8"/>
            <text class="st3" transform="translate(375.4 60)"><tspan x="0" y="0">Electronics</tspan></text>
          </g>
          <g>
            <line class="st16" x1="433.3" y1="82.7" x2="427.3" y2="82.7"/>
            <text class="st3" transform="translate(307 85.9)"><tspan x="0" y="0">Beauty and Personal Care</tspan></text>
          </g>
          <g>
            <line class="st16" x1="433.3" y1="108.6" x2="427.3" y2="108.6"/>
            <text class="st3" transform="translate(294.8 111.8)"><tspan x="0" y="0">Clothing, Shoes, and Jewelry</tspan></text>
          </g>
          <g>
            <line class="st16" x1="433.3" y1="134.5" x2="427.3" y2="134.5"/>
            <text class="st3" transform="translate(401.5 137.7)"><tspan x="0" y="0">Food</tspan></text>
          </g>
          <g>
            <line class="st16" x1="433.3" y1="160.4" x2="427.3" y2="160.4"/>
            <text class="st3" transform="translate(368.2 163.6)"><tspan x="0" y="0">Pet Supplies</tspan></text>
          </g>
          <g>
            <line class="st16" x1="433.3" y1="186.3" x2="427.3" y2="186.3"/>
            <text class="st3" transform="translate(396.5 189.5)"><tspan x="0" y="0">Books</tspan></text>
          </g>
          <g>
            <line class="st16" x1="433.3" y1="212.2" x2="427.3" y2="212.2"/>
            <text class="st3" transform="translate(332.1 215.4)"><tspan x="0" y="0">Sports and Outdoors</tspan></text>
          </g>
          <g>
            <line class="st16" x1="433.3" y1="238.1" x2="427.3" y2="238.1"/>
            <text class="st3" transform="translate(349.3 241.3)"><tspan x="0" y="0">Toys and Games</tspan></text>
          </g>
          <g>
            <line class="st16" x1="433.3" y1="264" x2="427.3" y2="264"/>
            <text class="st3" transform="translate(361.1 267.2)"><tspan x="0" y="0">Office Product</tspan></text>
          </g>
        </g>
      </g>
      <text class="st6" transform="translate(387.3 11.8)"><tspan x="0" y="0">$150,000 or more</tspan></text>
    </g>
    <g id="_x24_25_x2C_000_-__x24_49_x2C_999">
      <g>
        <g>
          <rect id="_x24_25_x2C_000_-__x24_49_x2C_999_-_Beauty_and_Personal_Care" class="st13" x="701.7" y="70.3" width="37.9" height="24.9"/>
          <rect id="_x24_25_x2C_000_-__x24_49_x2C_999_-_Books" class="st12" x="701.7" y="173.9" width="11.2" height="24.9"/>
          <rect id="_x24_25_x2C_000_-__x24_49_x2C_999_-_Clothing_x2C__Shoes_x2C__and_Jewelry" class="st8" x="701.7" y="96.2" width="34.2" height="24.9"/>
          <rect id="_x24_25_x2C_000_-__x24_49_x2C_999_-_Electronics" class="st1" x="701.7" y="44.4" width="84" height="24.9"/>
          <rect id="_x24_25_x2C_000_-__x24_49_x2C_999_-_Food" class="st14" x="701.7" y="122.1" width="20.8" height="24.9"/>
          <rect id="_x24_25_x2C_000_-__x24_49_x2C_999_-_Home_and_Kitchen" class="st7" x="701.7" y="18.5" width="92.4" height="24.9"/>
          <rect id="_x24_25_x2C_000_-__x24_49_x2C_999_-_Office_Product" class="st15" x="701.7" y="251.6" width="5.6" height="24.9"/>
          <rect id="_x24_25_x2C_000_-__x24_49_x2C_999_-_Pet_Supplies" class="st9" x="701.7" y="148" width="14.8" height="24.9"/>
          <rect id="_x24_25_x2C_000_-__x24_49_x2C_999_-_Sports_and_Outdoors" class="st11" x="701.7" y="199.8" width="6.2" height="24.9"/>
          <rect id="_x24_25_x2C_000_-__x24_49_x2C_999_-_Toys_and_Games" class="st0" x="701.7" y="225.7" width="6.6" height="24.9"/>
        </g>
        <g id="xAxis2" data-name="xAxis">
          <path class="st16" d="M701.7,283.5v-6h208.3v6"/>
          <g>
            <line class="st16" x1="701.7" y1="277.5" x2="701.7" y2="283.5"/>
            <text class="st3" transform="translate(698.9 293.6)"><tspan x="0" y="0">0</tspan></text>
          </g>
          <g>
            <line class="st16" x1="731.4" y1="277.5" x2="731.4" y2="283.5"/>
            <text class="st3" transform="translate(723.1 293.6)"><tspan x="0" y="0">500</tspan></text>
          </g>
          <g>
            <line class="st16" x1="761.2" y1="277.5" x2="761.2" y2="283.5"/>
            <text class="st3" transform="translate(748.7 293.6)"><tspan x="0" y="0">1,000</tspan></text>
          </g>
          <g>
            <line class="st16" x1="791" y1="277.5" x2="791" y2="283.5"/>
            <text class="st3" transform="translate(778.4 293.6)"><tspan x="0" y="0">1,500</tspan></text>
          </g>
          <g>
            <line class="st16" x1="820.7" y1="277.5" x2="820.7" y2="283.5"/>
            <text class="st3" transform="translate(808.2 293.6)"><tspan x="0" y="0">2,000</tspan></text>
          </g>
          <g>
            <line class="st16" x1="850.5" y1="277.5" x2="850.5" y2="283.5"/>
            <text class="st3" transform="translate(838 293.6)"><tspan x="0" y="0">2,500</tspan></text>
          </g>
          <g>
            <line class="st16" x1="880.2" y1="277.5" x2="880.2" y2="283.5"/>
            <text class="st3" transform="translate(867.7 293.6)"><tspan x="0" y="0">3,000</tspan></text>
          </g>
          <g>
            <line class="st16" x1="910" y1="277.5" x2="910" y2="283.5"/>
            <text class="st3" transform="translate(897.5 293.6)"><tspan x="0" y="0">3,500</tspan></text>
          </g>
        </g>
        <g id="yAxis2" data-name="yAxis">
          <path class="st16" d="M701.7,17.5v260"/>
          <g>
            <line class="st16" x1="701.7" y1="30.9" x2="695.7" y2="30.9"/>
            <text class="st3" transform="translate(610.4 34.1)"><tspan x="0" y="0">Home and Kitchen</tspan></text>
          </g>
          <g>
            <line class="st16" x1="701.7" y1="56.8" x2="695.7" y2="56.8"/>
            <text class="st3" transform="translate(643.8 60)"><tspan x="0" y="0">Electronics</tspan></text>
          </g>
          <g>
            <line class="st16" x1="701.7" y1="82.7" x2="695.7" y2="82.7"/>
            <text class="st3" transform="translate(575.4 85.9)"><tspan x="0" y="0">Beauty and Personal Care</tspan></text>
          </g>
          <g>
            <line class="st16" x1="701.7" y1="108.6" x2="695.7" y2="108.6"/>
            <text class="st3" transform="translate(563.2 111.8)"><tspan x="0" y="0">Clothing, Shoes, and Jewelry</tspan></text>
          </g>
          <g>
            <line class="st16" x1="701.7" y1="134.5" x2="695.7" y2="134.5"/>
            <text class="st3" transform="translate(669.9 137.7)"><tspan x="0" y="0">Food</tspan></text>
          </g>
          <g>
            <line class="st16" x1="701.7" y1="160.4" x2="695.7" y2="160.4"/>
            <text class="st3" transform="translate(636.5 163.6)"><tspan x="0" y="0">Pet Supplies</tspan></text>
          </g>
          <g>
            <line class="st16" x1="701.7" y1="186.3" x2="695.7" y2="186.3"/>
            <text class="st3" transform="translate(664.9 189.5)"><tspan x="0" y="0">Books</tspan></text>
          </g>
          <g>
            <line class="st16" x1="701.7" y1="212.2" x2="695.7" y2="212.2"/>
            <text class="st3" transform="translate(600.4 215.4)"><tspan x="0" y="0">Sports and Outdoors</tspan></text>
          </g>
          <g>
            <line class="st16" x1="701.7" y1="238.1" x2="695.7" y2="238.1"/>
            <text class="st3" transform="translate(617.6 241.3)"><tspan x="0" y="0">Toys and Games</tspan></text>
          </g>
          <g>
            <line class="st16" x1="701.7" y1="264" x2="695.7" y2="264"/>
            <text class="st3" transform="translate(629.5 267.2)"><tspan x="0" y="0">Office Product</tspan></text>
          </g>
        </g>
      </g>
      <text class="st6" transform="translate(655.7 11.8)"><tspan x="0" y="0">$25,000 - $49,999</tspan></text>
    </g>
    <g id="_x24_50_x2C_000_-__x24_74_x2C_999">
      <g>
        <g>
          <rect id="_x24_50_x2C_000_-__x24_74_x2C_999_-_Beauty_and_Personal_Care" class="st13" x="165" y="370.3" width="45.5" height="24.9"/>
          <rect id="_x24_50_x2C_000_-__x24_74_x2C_999_-_Books" class="st12" x="165" y="473.9" width="11.9" height="24.9"/>
          <rect id="_x24_50_x2C_000_-__x24_74_x2C_999_-_Clothing_x2C__Shoes_x2C__and_Jewelry" class="st8" x="165" y="396.2" width="44.6" height="24.9"/>
          <rect id="_x24_50_x2C_000_-__x24_74_x2C_999_-_Electronics" class="st1" x="165" y="344.4" width="96.2" height="24.9"/>
          <rect id="_x24_50_x2C_000_-__x24_74_x2C_999_-_Food" class="st14" x="165" y="422.1" width="24.9" height="24.9"/>
          <rect id="_x24_50_x2C_000_-__x24_74_x2C_999_-_Home_and_Kitchen" class="st7" x="165" y="318.5" width="119.9" height="24.9"/>
          <rect id="_x24_50_x2C_000_-__x24_74_x2C_999_-_Office_Product" class="st15" x="165" y="551.6" width="5.6" height="24.9"/>
          <rect id="_x24_50_x2C_000_-__x24_74_x2C_999_-_Pet_Supplies" class="st9" x="165" y="448" width="15.7" height="24.9"/>
          <rect id="_x24_50_x2C_000_-__x24_74_x2C_999_-_Sports_and_Outdoors" class="st11" x="165" y="499.8" width="9" height="24.9"/>
          <rect id="_x24_50_x2C_000_-__x24_74_x2C_999_-_Toys_and_Games" class="st0" x="165" y="525.7" width="10.1" height="24.9"/>
        </g>
        <g id="xAxis3" data-name="xAxis">
          <path class="st16" d="M165,583.5v-6h208.3v6"/>
          <g>
            <line class="st16" x1="165" y1="577.5" x2="165" y2="583.5"/>
            <text class="st3" transform="translate(162.2 593.6)"><tspan x="0" y="0">0</tspan></text>
          </g>
          <g>
            <line class="st16" x1="194.8" y1="577.5" x2="194.8" y2="583.5"/>
            <text class="st3" transform="translate(186.4 593.6)"><tspan x="0" y="0">500</tspan></text>
          </g>
          <g>
            <line class="st16" x1="224.5" y1="577.5" x2="224.5" y2="583.5"/>
            <text class="st3" transform="translate(212 593.6)"><tspan x="0" y="0">1,000</tspan></text>
          </g>
          <g>
            <line class="st16" x1="254.3" y1="577.5" x2="254.3" y2="583.5"/>
            <text class="st3" transform="translate(241.8 593.6)"><tspan x="0" y="0">1,500</tspan></text>
          </g>
          <g>
            <line class="st16" x1="284" y1="577.5" x2="284" y2="583.5"/>
            <text class="st3" transform="translate(271.5 593.6)"><tspan x="0" y="0">2,000</tspan></text>
          </g>
          <g>
            <line class="st16" x1="313.8" y1="577.5" x2="313.8" y2="583.5"/>
            <text class="st3" transform="translate(301.3 593.6)"><tspan x="0" y="0">2,500</tspan></text>
          </g>
          <g>
            <line class="st16" x1="343.6" y1="577.5" x2="343.6" y2="583.5"/>
            <text class="st3" transform="translate(331.1 593.6)"><tspan x="0" y="0">3,000</tspan></text>
          </g>
          <g>
            <line class="st16" x1="373.3" y1="577.5" x2="373.3" y2="583.5"/>
            <text class="st3" transform="translate(360.8 593.6)"><tspan x="0" y="0">3,500</tspan></text>
          </g>
        </g>
        <g id="yAxis3" data-name="yAxis">
          <path class="st16" d="M165,317.5v260"/>
          <g>
            <line class="st16" x1="165" y1="330.9" x2="159" y2="330.9"/>
            <text class="st3" transform="translate(73.7 334.1)"><tspan x="0" y="0">Home and Kitchen</tspan></text>
          </g>
          <g>
            <line class="st16" x1="165" y1="356.8" x2="159" y2="356.8"/>
            <text class="st3" transform="translate(107.1 360)"><tspan x="0" y="0">Electronics</tspan></text>
          </g>
          <g>
            <line class="st16" x1="165" y1="382.7" x2="159" y2="382.7"/>
            <text class="st3" transform="translate(38.7 385.9)"><tspan x="0" y="0">Beauty and Personal Care</tspan></text>
          </g>
          <g>
            <line class="st16" x1="165" y1="408.6" x2="159" y2="408.6"/>
            <text class="st3" transform="translate(26.5 411.8)"><tspan x="0" y="0">Clothing, Shoes, and Jewelry</tspan></text>
          </g>
          <g>
            <line class="st16" x1="165" y1="434.5" x2="159" y2="434.5"/>
            <text class="st3" transform="translate(133.2 437.7)"><tspan x="0" y="0">Food</tspan></text>
          </g>
          <g>
            <line class="st16" x1="165" y1="460.4" x2="159" y2="460.4"/>
            <text class="st3" transform="translate(99.9 463.6)"><tspan x="0" y="0">Pet Supplies</tspan></text>
          </g>
          <g>
            <line class="st16" x1="165" y1="486.3" x2="159" y2="486.3"/>
            <text class="st3" transform="translate(128.2 489.5)"><tspan x="0" y="0">Books</tspan></text>
          </g>
          <g>
            <line class="st16" x1="165" y1="512.2" x2="159" y2="512.2"/>
            <text class="st3" transform="translate(63.7 515.4)"><tspan x="0" y="0">Sports and Outdoors</tspan></text>
          </g>
          <g>
            <line class="st16" x1="165" y1="538.1" x2="159" y2="538.1"/>
            <text class="st3" transform="translate(81 541.3)"><tspan x="0" y="0">Toys and Games</tspan></text>
          </g>
          <g>
            <line class="st16" x1="165" y1="564" x2="159" y2="564"/>
            <text class="st3" transform="translate(92.8 567.2)"><tspan x="0" y="0">Office Product</tspan></text>
          </g>
        </g>
      </g>
      <text class="st6" transform="translate(119 311.8)"><tspan x="0" y="0">$50,000 - $74,999</tspan></text>
    </g>
    <g id="_x24_75_x2C_000_-__x24_99_x2C_999">
      <g>
        <g>
          <rect id="_x24_75_x2C_000_-__x24_99_x2C_999_-_Beauty_and_Personal_Care" class="st13" x="433.3" y="370.3" width="51.6" height="24.9"/>
          <rect id="_x24_75_x2C_000_-__x24_99_x2C_999_-_Books" class="st12" x="433.3" y="473.9" width="15" height="24.9"/>
          <rect id="_x24_75_x2C_000_-__x24_99_x2C_999_-_Clothing_x2C__Shoes_x2C__and_Jewelry" class="st8" x="433.3" y="396.2" width="48.5" height="24.9"/>
          <rect id="_x24_75_x2C_000_-__x24_99_x2C_999_-_Electronics" class="st1" x="433.3" y="344.4" width="105" height="24.9"/>
          <rect id="_x24_75_x2C_000_-__x24_99_x2C_999_-_Food" class="st14" x="433.3" y="422.1" width="24.5" height="24.9"/>
          <rect id="_x24_75_x2C_000_-__x24_99_x2C_999_-_Home_and_Kitchen" class="st7" x="433.3" y="318.5" width="131" height="24.9"/>
          <rect id="_x24_75_x2C_000_-__x24_99_x2C_999_-_Office_Product" class="st15" x="433.3" y="551.6" width="7.5" height="24.9"/>
          <rect id="_x24_75_x2C_000_-__x24_99_x2C_999_-_Pet_Supplies" class="st9" x="433.3" y="448" width="14.9" height="24.9"/>
          <rect id="_x24_75_x2C_000_-__x24_99_x2C_999_-_Sports_and_Outdoors" class="st11" x="433.3" y="499.8" width="10.8" height="24.9"/>
          <rect id="_x24_75_x2C_000_-__x24_99_x2C_999_-_Toys_and_Games" class="st0" x="433.3" y="525.7" width="10.4" height="24.9"/>
        </g>
        <g id="xAxis4" data-name="xAxis">
          <path class="st16" d="M433.3,583.5v-6h208.3v6"/>
          <g>
            <line class="st16" x1="433.3" y1="577.5" x2="433.3" y2="583.5"/>
            <text class="st3" transform="translate(430.6 593.6)"><tspan x="0" y="0">0</tspan></text>
          </g>
          <g>
            <line class="st16" x1="463.1" y1="577.5" x2="463.1" y2="583.5"/>
            <text class="st3" transform="translate(454.8 593.6)"><tspan x="0" y="0">500</tspan></text>
          </g>
          <g>
            <line class="st16" x1="492.9" y1="577.5" x2="492.9" y2="583.5"/>
            <text class="st3" transform="translate(480.3 593.6)"><tspan x="0" y="0">1,000</tspan></text>
          </g>
          <g>
            <line class="st16" x1="522.6" y1="577.5" x2="522.6" y2="583.5"/>
            <text class="st3" transform="translate(510.1 593.6)"><tspan x="0" y="0">1,500</tspan></text>
          </g>
          <g>
            <line class="st16" x1="552.4" y1="577.5" x2="552.4" y2="583.5"/>
            <text class="st3" transform="translate(539.9 593.6)"><tspan x="0" y="0">2,000</tspan></text>
          </g>
          <g>
            <line class="st16" x1="582.1" y1="577.5" x2="582.1" y2="583.5"/>
            <text class="st3" transform="translate(569.6 593.6)"><tspan x="0" y="0">2,500</tspan></text>
          </g>
          <g>
            <line class="st16" x1="611.9" y1="577.5" x2="611.9" y2="583.5"/>
            <text class="st3" transform="translate(599.4 593.6)"><tspan x="0" y="0">3,000</tspan></text>
          </g>
          <g>
            <line class="st16" x1="641.7" y1="577.5" x2="641.7" y2="583.5"/>
            <text class="st3" transform="translate(629.2 593.6)"><tspan x="0" y="0">3,500</tspan></text>
          </g>
        </g>
        <g id="yAxis4" data-name="yAxis">
          <path class="st16" d="M433.3,317.5v260"/>
          <g>
            <line class="st16" x1="433.3" y1="330.9" x2="427.3" y2="330.9"/>
            <text class="st3" transform="translate(342.1 334.1)"><tspan x="0" y="0">Home and Kitchen</tspan></text>
          </g>
          <g>
            <line class="st16" x1="433.3" y1="356.8" x2="427.3" y2="356.8"/>
            <text class="st3" transform="translate(375.4 360)"><tspan x="0" y="0">Electronics</tspan></text>
          </g>
          <g>
            <line class="st16" x1="433.3" y1="382.7" x2="427.3" y2="382.7"/>
            <text class="st3" transform="translate(307 385.9)"><tspan x="0" y="0">Beauty and Personal Care</tspan></text>
          </g>
          <g>
            <line class="st16" x1="433.3" y1="408.6" x2="427.3" y2="408.6"/>
            <text class="st3" transform="translate(294.8 411.8)"><tspan x="0" y="0">Clothing, Shoes, and Jewelry</tspan></text>
          </g>
          <g>
            <line class="st16" x1="433.3" y1="434.5" x2="427.3" y2="434.5"/>
            <text class="st3" transform="translate(401.5 437.7)"><tspan x="0" y="0">Food</tspan></text>
          </g>
          <g>
            <line class="st16" x1="433.3" y1="460.4" x2="427.3" y2="460.4"/>
            <text class="st3" transform="translate(368.2 463.6)"><tspan x="0" y="0">Pet Supplies</tspan></text>
          </g>
          <g>
            <line class="st16" x1="433.3" y1="486.3" x2="427.3" y2="486.3"/>
            <text class="st3" transform="translate(396.5 489.5)"><tspan x="0" y="0">Books</tspan></text>
          </g>
          <g>
            <line class="st16" x1="433.3" y1="512.2" x2="427.3" y2="512.2"/>
            <text class="st3" transform="translate(332.1 515.4)"><tspan x="0" y="0">Sports and Outdoors</tspan></text>
          </g>
          <g>
            <line class="st16" x1="433.3" y1="538.1" x2="427.3" y2="538.1"/>
            <text class="st3" transform="translate(349.3 541.3)"><tspan x="0" y="0">Toys and Games</tspan></text>
          </g>
          <g>
            <line class="st16" x1="433.3" y1="564" x2="427.3" y2="564"/>
            <text class="st3" transform="translate(361.1 567.2)"><tspan x="0" y="0">Office Product</tspan></text>
          </g>
        </g>
      </g>
      <text class="st6" transform="translate(387.3 311.8)"><tspan x="0" y="0">$75,000 - $99,999</tspan></text>
    </g>
    <g id="Less_than__x24_25_x2C_000">
      <g>
        <g>
          <rect id="Less_than__x24_25_x2C_000_-_Beauty_and_Personal_Care" class="st13" x="701.7" y="370.3" width="32" height="24.9"/>
          <rect id="Less_than__x24_25_x2C_000_-_Books" class="st12" x="701.7" y="473.9" width="11.4" height="24.9"/>
          <rect id="Less_than__x24_25_x2C_000_-_Clothing_x2C__Shoes_x2C__and_Jewelry" class="st8" x="701.7" y="396.2" width="31.4" height="24.9"/>
          <rect id="Less_than__x24_25_x2C_000_-_Electronics" class="st1" x="701.7" y="344.4" width="75.6" height="24.9"/>
          <rect id="Less_than__x24_25_x2C_000_-_Food" class="st14" x="701.7" y="422.1" width="22.8" height="24.9"/>
          <rect id="Less_than__x24_25_x2C_000_-_Home_and_Kitchen" class="st7" x="701.7" y="318.5" width="75.6" height="24.9"/>
          <rect id="Less_than__x24_25_x2C_000_-_Office_Product" class="st15" x="701.7" y="551.6" width="4.8" height="24.9"/>
          <rect id="Less_than__x24_25_x2C_000_-_Pet_Supplies" class="st9" x="701.7" y="448" width="11.7" height="24.9"/>
          <rect id="Less_than__x24_25_x2C_000_-_Sports_and_Outdoors" class="st11" x="701.7" y="499.8" width="4.8" height="24.9"/>
          <rect id="Less_than__x24_25_x2C_000_-_Toys_and_Games" class="st0" x="701.7" y="525.7" width="6.2" height="24.9"/>
        </g>
        <g id="xAxis5" data-name="xAxis">
          <path class="st16" d="M701.7,583.5v-6h208.3v6"/>
          <g>
            <line class="st16" x1="701.7" y1="577.5" x2="701.7" y2="583.5"/>
            <text class="st3" transform="translate(698.9 593.6)"><tspan x="0" y="0">0</tspan></text>
          </g>
          <g>
            <line class="st16" x1="731.4" y1="577.5" x2="731.4" y2="583.5"/>
            <text class="st3" transform="translate(723.1 593.6)"><tspan x="0" y="0">500</tspan></text>
          </g>
          <g>
            <line class="st16" x1="761.2" y1="577.5" x2="761.2" y2="583.5"/>
            <text class="st3" transform="translate(748.7 593.6)"><tspan x="0" y="0">1,000</tspan></text>
          </g>
          <g>
            <line class="st16" x1="791" y1="577.5" x2="791" y2="583.5"/>
            <text class="st3" transform="translate(778.4 593.6)"><tspan x="0" y="0">1,500</tspan></text>
          </g>
          <g>
            <line class="st16" x1="820.7" y1="577.5" x2="820.7" y2="583.5"/>
            <text class="st3" transform="translate(808.2 593.6)"><tspan x="0" y="0">2,000</tspan></text>
          </g>
          <g>
            <line class="st16" x1="850.5" y1="577.5" x2="850.5" y2="583.5"/>
            <text class="st3" transform="translate(838 593.6)"><tspan x="0" y="0">2,500</tspan></text>
          </g>
          <g>
            <line class="st16" x1="880.2" y1="577.5" x2="880.2" y2="583.5"/>
            <text class="st3" transform="translate(867.7 593.6)"><tspan x="0" y="0">3,000</tspan></text>
          </g>
          <g>
            <line class="st16" x1="910" y1="577.5" x2="910" y2="583.5"/>
            <text class="st3" transform="translate(897.5 593.6)"><tspan x="0" y="0">3,500</tspan></text>
          </g>
        </g>
        <g id="yAxis5" data-name="yAxis">
          <path class="st16" d="M701.7,317.5v260"/>
          <g>
            <line class="st16" x1="701.7" y1="330.9" x2="695.7" y2="330.9"/>
            <text class="st3" transform="translate(610.4 334.1)"><tspan x="0" y="0">Home and Kitchen</tspan></text>
          </g>
          <g>
            <line class="st16" x1="701.7" y1="356.8" x2="695.7" y2="356.8"/>
            <text class="st3" transform="translate(643.8 360)"><tspan x="0" y="0">Electronics</tspan></text>
          </g>
          <g>
            <line class="st16" x1="701.7" y1="382.7" x2="695.7" y2="382.7"/>
            <text class="st3" transform="translate(575.4 385.9)"><tspan x="0" y="0">Beauty and Personal Care</tspan></text>
          </g>
          <g>
            <line class="st16" x1="701.7" y1="408.6" x2="695.7" y2="408.6"/>
            <text class="st3" transform="translate(563.2 411.8)"><tspan x="0" y="0">Clothing, Shoes, and Jewelry</tspan></text>
          </g>
          <g>
            <line class="st16" x1="701.7" y1="434.5" x2="695.7" y2="434.5"/>
            <text class="st3" transform="translate(669.9 437.7)"><tspan x="0" y="0">Food</tspan></text>
          </g>
          <g>
            <line class="st16" x1="701.7" y1="460.4" x2="695.7" y2="460.4"/>
            <text class="st3" transform="translate(636.5 463.6)"><tspan x="0" y="0">Pet Supplies</tspan></text>
          </g>
          <g>
            <line class="st16" x1="701.7" y1="486.3" x2="695.7" y2="486.3"/>
            <text class="st3" transform="translate(664.9 489.5)"><tspan x="0" y="0">Books</tspan></text>
          </g>
          <g>
            <line class="st16" x1="701.7" y1="512.2" x2="695.7" y2="512.2"/>
            <text class="st3" transform="translate(600.4 515.4)"><tspan x="0" y="0">Sports and Outdoors</tspan></text>
          </g>
          <g>
            <line class="st16" x1="701.7" y1="538.1" x2="695.7" y2="538.1"/>
            <text class="st3" transform="translate(617.6 541.3)"><tspan x="0" y="0">Toys and Games</tspan></text>
          </g>
          <g>
            <line class="st16" x1="701.7" y1="564" x2="695.7" y2="564"/>
            <text class="st3" transform="translate(629.5 567.2)"><tspan x="0" y="0">Office Product</tspan></text>
          </g>
        </g>
      </g>
      <text class="st6" transform="translate(655.7 311.8)"><tspan x="0" y="0">Less than $25,000</tspan></text>
    </g>
  </g>
  <g id="legend">
    <g>
      <g>
        <g>
          <rect class="st13" x="925" y="33" width="15" height="15"/>
          <g class="st4">
            <text class="st2" transform="translate(945 45.5)"><tspan x="0" y="0">Beauty and Personal Care</tspan></text>
          </g>
        </g>
        <g>
          <rect class="st12" x="925" y="53.5" width="15" height="15"/>
          <g class="st4">
            <text class="st2" transform="translate(945 66)"><tspan x="0" y="0">Books</tspan></text>
          </g>
        </g>
        <g>
          <rect class="st8" x="925" y="74" width="15" height="15"/>
          <g class="st4">
            <text class="st2" transform="translate(945 86.5)"><tspan x="0" y="0">Clothing, Shoes, and</tspan></text>
            <text class="st2" transform="translate(945 98.5)"><tspan x="0" y="0">Jewelry</tspan></text>
          </g>
        </g>
        <g>
          <rect class="st1" x="925" y="110.1" width="15" height="15"/>
          <g class="st4">
            <text class="st2" transform="translate(945 122.6)"><tspan x="0" y="0">Electronics</tspan></text>
          </g>
        </g>
        <g>
          <rect class="st14" x="925" y="130.6" width="15" height="15"/>
          <g class="st4">
            <text class="st2" transform="translate(945 143.1)"><tspan x="0" y="0">Food</tspan></text>
          </g>
        </g>
        <g>
          <rect class="st7" x="925" y="151.1" width="15" height="15"/>
          <g class="st4">
            <text class="st2" transform="translate(945 163.6)"><tspan x="0" y="0">Home and Kitchen</tspan></text>
          </g>
        </g>
        <g>
          <rect class="st15" x="925" y="171.6" width="15" height="15"/>
          <g class="st4">
            <text class="st2" transform="translate(945 184.1)"><tspan x="0" y="0">Office Product</tspan></text>
          </g>
        </g>
        <g>
          <rect class="st9" x="925" y="192.1" width="15" height="15"/>
          <g class="st4">
            <text class="st2" transform="translate(945 204.6)"><tspan x="0" y="0">Pet Supplies</tspan></text>
          </g>
        </g>
        <g>
          <rect class="st11" x="925" y="212.6" width="15" height="15"/>
          <g class="st4">
            <text class="st2" transform="translate(945 225.1)"><tspan x="0" y="0">Sports and Outdoors</tspan></text>
          </g>
        </g>
        <g>
          <rect class="st0" x="925" y="233.1" width="15" height="15"/>
          <g class="st4">
            <text class="st2" transform="translate(945 245.6)"><tspan x="0" y="0">Toys and Games</tspan></text>
          </g>
        </g>
      </g>
      <g class="st4">
        <text class="st6" transform="translate(925 17.5)"><tspan x="0" y="0">New_Category</tspan></text>
      </g>
    </g>
  </g>
</svg>