<?xml version="1.0" encoding="UTF-8"?>
<svg id="Layer_1" xmlns="http://www.w3.org/2000/svg" xmlns:xlink="http://www.w3.org/1999/xlink" version="1.1" viewBox="0 0 700 700">
  <!-- Generator: Adobe Illustrator 29.5.1, SVG Export Plug-In . SVG Version: 2.1.0 Build 141)  -->
  <defs>
    <clipPath id="clippath">
      <rect x="12" y="12" width="167" height="304" fill="none"/>
    </clipPath>
    <clipPath id="clippath-1">
      <rect x="181" y="12" width="394" height="279" fill="none"/>
    </clipPath>
    <clipPath id="clippath-3">
      <rect x="181" y="293" width="381" height="395" fill="none"/>
    </clipPath>
  </defs>
  <rect id="path0" x="12" y="12" width="167" height="304" fill="#9b9b9b"/>
  <g clip-path="url(#clippath)">
    <g isolation="isolate">
      <text transform="translate(210 10.7)" font-family="ArialMT, Arial" font-size="12" isolation="isolate"><tspan x="0" y="0">ipsum</tspan></text>
    </g>
  </g>
  <rect id="path1" x="12" y="318" width="167" height="87" fill="#9b9b9b"/>
  <rect id="path2" x="12" y="407" width="167" height="281" fill="#9b9b9b"/>
  <rect id="path3" x="181" y="12" width="394" height="279" fill="#50e3c2"/>
  <g clip-path="url(#clippath-1)">
    <g isolation="isolate">
      <text transform="translate(190.3 41.9)" font-family="Arial-BoldMT, Arial" font-size="21" font-weight="700" isolation="isolate"><tspan x="0" y="0">Electronics</tspan></text>
    </g>
  </g>
  <rect id="path4" x="577" y="12" width="111" height="279" fill="#9b9b9b"/>
  <rect id="path5" x="181" y="293" width="381" height="395" fill="#4a90e2"/>
  <g clip-path="url(#clippath-3)">
    <g isolation="isolate">
      <text transform="translate(189.6 318)" font-family="Arial-BoldMT, Arial" font-size="21" font-weight="700" isolation="isolate"><tspan x="0" y="0">Home and Kitchen</tspan></text>
    </g>
  </g>
  <rect id="path6" x="564" y="293" width="39" height="176" fill="#9b9b9b"/>
  <rect id="path7" x="605" y="293" width="83" height="176" fill="#9b9b9b"/>
  <rect id="path8" x="564" y="471" width="124" height="117" fill="#9b9b9b"/>
  <rect id="path9" x="564" y="590" width="124" height="98" fill="#9b9b9b"/>
</svg>