<?xml version="1.0" encoding="UTF-8"?>
<svg id="Layer_1" xmlns="http://www.w3.org/2000/svg" xmlns:xlink="http://www.w3.org/1999/xlink" version="1.1" viewBox="0 0 700 700">
  <!-- Generator: Adobe Illustrator 29.3.1, SVG Export Plug-In . SVG Version: 2.1.0 Build 151)  -->
  <defs>
    <style>
      .st0 {
        fill: none;
      }

      .st1, .st2 {
        font-size: 18px;
      }

      .st1, .st3, .st4 {
        font-family: Arial-BoldMT, Arial;
        font-weight: 700;
        isolation: isolate;
      }

      .st5 {
        fill: #c7ddf7;
      }

      .st6 {
        fill: #c2daf6;
      }

      .st7 {
        fill: #f7fbff;
      }

      .st2 {
        font-family: MyriadPro-Regular, 'Myriad Pro';
      }

      .st8 {
        clip-path: url(#clippath-1);
      }

      .st9 {
        clip-path: url(#clippath-3);
      }

      .st10 {
        clip-path: url(#clippath-4);
      }

      .st11 {
        clip-path: url(#clippath-2);
      }

      .st12 {
        clip-path: url(#clippath-7);
      }

      .st13 {
        clip-path: url(#clippath-6);
      }

      .st14 {
        clip-path: url(#clippath-9);
      }

      .st15 {
        clip-path: url(#clippath-8);
      }

      .st16 {
        clip-path: url(#clippath-5);
      }

      .st17 {
        fill: #fff;
      }

      .st18 {
        fill: #4a90e2;
      }

      .st3 {
        font-size: 21px;
      }

      .st4 {
        font-size: 14px;
      }

      .st19 {
        fill: #dae9fa;
      }

      .st20 {
        fill: #7baeea;
      }

      .st21 {
        fill: #eef5fd;
      }

      .st22 {
        fill: #f1f7fe;
      }

      .st23 {
        clip-path: url(#clippath);
      }
    </style>
    <clipPath id="clippath">
      <rect class="st0" x="10.6" y="6.9" width="167" height="301.9"/>
    </clipPath>
    <clipPath id="clippath-1">
      <rect class="st0" x="11.3" y="310.8" width="167" height="87"/>
    </clipPath>
    <clipPath id="clippath-2">
      <rect class="st0" x="10.6" y="399.8" width="167" height="281"/>
    </clipPath>
    <clipPath id="clippath-3">
      <rect class="st0" x="179.6" y="4.8" width="394" height="279"/>
    </clipPath>
    <clipPath id="clippath-4">
      <rect class="st0" x="575.6" y="4.8" width="111" height="279"/>
    </clipPath>
    <clipPath id="clippath-5">
      <rect class="st0" x="179.6" y="285.8" width="381" height="395"/>
    </clipPath>
    <clipPath id="clippath-6">
      <rect class="st0" x="562.6" y="285.8" width="39" height="176"/>
    </clipPath>
    <clipPath id="clippath-7">
      <rect class="st0" x="603.6" y="285.8" width="83" height="176"/>
    </clipPath>
    <clipPath id="clippath-8">
      <rect class="st0" x="562.6" y="463.8" width="124" height="117"/>
    </clipPath>
    <clipPath id="clippath-9">
      <rect class="st0" x="562.6" y="582.8" width="124" height="98"/>
    </clipPath>
  </defs>
  <rect id="background" class="st17" width="700" height="700"/>
  <rect id="path0" class="st6" x="10.6" y="4.8" width="167" height="304"/>
  <g class="st23">
    <text class="st1" transform="translate(19.2 36)"><tspan x="0" y="0">Beauty and </tspan><tspan x="0" y="21.6">Personal Care</tspan></text>
    <text class="st2" transform="translate(801.8 118.9)"><tspan x="0" y="0">Lorem ipsum</tspan></text>
  </g>
  <rect id="path1" class="st21" x="10.6" y="310.8" width="167" height="87"/>
  <g class="st8">
    <text class="st3" transform="translate(16.5 336.2)"><tspan x="0" y="0">Books</tspan></text>
  </g>
  <rect id="path2" class="st5" x="10.6" y="399.8" width="167" height="281"/>
  <g class="st11">
    <text class="st1" transform="translate(10.6 429.8)"><tspan x="0" y="0">Clothing, Shoes, </tspan><tspan x="0" y="21.6">and Jewelry</tspan></text>
  </g>
  <rect id="path3" class="st20" x="179.6" y="4.8" width="394" height="279"/>
  <g class="st9">
    <text class="st3" transform="translate(184.8 36)"><tspan x="0" y="0">Electronics</tspan></text>
  </g>
  <rect id="path4" class="st19" x="575.6" y="4.8" width="111" height="279"/>
  <g class="st10">
    <text class="st1" transform="translate(579.3 26.1)"><tspan x="0" y="0">Food</tspan></text>
  </g>
  <rect id="path5" class="st18" x="179.6" y="285.8" width="381" height="395"/>
  <g class="st16">
    <text class="st3" transform="translate(186.3 321.1)"><tspan x="0" y="0">Home and Kitchen</tspan></text>
  </g>
  <rect id="path6" class="st7" x="562.6" y="285.8" width="39" height="176"/>
  <g class="st13">
    <text class="st4" transform="translate(567.6 291.3) rotate(90) scale(1 1)"><tspan x="0" y="0">Office Product</tspan></text>
  </g>
  <rect id="path7" class="st21" x="603.6" y="285.8" width="83" height="176"/>
  <g class="st12">
    <text class="st4" transform="translate(667.6 288.4) rotate(90)"><tspan x="0" y="0">Pet Supplies</tspan></text>
  </g>
  <rect id="path8" class="st21" x="562.6" y="463.8" width="124" height="117"/>
  <g class="st15">
    <text class="st4" transform="translate(566.6 488.1)"><tspan x="0" y="0">Sports and </tspan><tspan x="0" y="16.8">Outdoors</tspan></text>
  </g>
  <rect id="path9" class="st22" x="562.6" y="582.8" width="124" height="98"/>
  <g class="st14">
    <text class="st4" transform="translate(566.2 616.6)"><tspan x="0" y="0">Toys and </tspan><tspan x="0" y="16.8">Games</tspan></text>
  </g>
</svg>